# xmcd CD database file
#
# Track frame offsets:
#	150
#	16605
#	32387
#	53760
#	71470
#	91582
#	104812
#	122937
#	135940
#	157340
#	171897
#	188430
#
# Disc length: 2737 seconds
#
# Revision: 0
# Processed by: cddbd v1.4PL0 Copyright (c) Steve Scherf et al.
# Submitted via: CDex 1.50
#
DISCID=900aaf0c
DTITLE=Dude Ranch - Dude Ranch
DYEAR=1900
DGENRE=Country
TTITLE0=Foolmaker
TTITLE1=Garden Of Sound
TTITLE2=Unbroken Line
TTITLE3=If You Knew Love
TTITLE4=This Memory Of You
TTITLE5=Available Space
TTITLE6=Hurting Game
TTITLE7=Shufflin' Fool
TTITLE8=Take Me
TTITLE9=Ed's Head
TTITLE10=Louisiana Girl
TTITLE11=Lucky's Dreaming
EXTD=
EXTT0=
EXTT1=
EXTT2=
EXTT3=
EXTT4=
EXTT5=
EXTT6=
EXTT7=
EXTT8=
EXTT9=
EXTT10=
EXTT11=
PLAYORDER=
